<svg xmlns="http://www.w3.org/2000/svg" version="1.1" width="64px" height="64px">
<g><path fill="#fefefe" d="M 41.5,0.5 C 55.7452,0.000589107 61.2452,6.66726 58,20.5C 49.1971,30.3037 40.0305,39.8037 30.5,49C 20.1242,52.9397 14.9575,49.4397 15,38.5C 21.1349,31.364 27.6349,24.5307 34.5,18C 39.8054,17.5429 40.8054,19.5429 37.5,24C 37.9574,24.414 38.2907,24.914 38.5,25.5C 35.3492,29.1514 32.0158,32.6514 28.5,36C 25.4618,35.9296 22.9618,37.4296 21,40.5C 20.5078,42.8245 21.5078,44.1579 24,44.5C 24.8333,44.3333 25.6667,44.1667 26.5,44C 35,35.5 43.5,27 52,18.5C 54.2948,8.46423 50.4614,4.96423 40.5,8C 31,17.5 21.5,27 12,36.5C 7.22639,45.0465 9.05973,51.5465 17.5,56C 20.9283,56.7011 24.2617,56.3677 27.5,55C 36.5,46 45.5,37 54.5,28C 56.1341,27.5065 57.8008,27.3398 59.5,27.5C 59.6602,29.1992 59.4935,30.8659 59,32.5C 49.4705,42.3637 39.6371,51.8637 29.5,61C 14.4803,65.1628 5.48029,59.6628 2.5,44.5C 3.26925,41.4899 4.10258,38.4899 5,35.5C 16.1236,22.5388 28.2903,10.8721 41.5,0.5 Z"/></g>
</svg>
