<?xml version="1.0" encoding="UTF-8"?>
<!DOCTYPE svg PUBLIC "-//W3C//DTD SVG 1.1//EN" "http://www.w3.org/Graphics/SVG/1.1/DTD/svg11.dtd">
<svg xmlns="http://www.w3.org/2000/svg" version="1.1" width="120px" height="120px" style="shape-rendering:geometricPrecision; text-rendering:geometricPrecision; image-rendering:optimizeQuality; fill-rule:evenodd; clip-rule:evenodd" xmlns:xlink="http://www.w3.org/1999/xlink">
<g><path style="opacity:0.936" fill="#fefffe" d="M 119.5,49.5 C 119.5,56.8333 119.5,64.1667 119.5,71.5C 114.727,93.1187 102.06,108.285 81.5,117C 79.0982,117.814 76.7649,117.647 74.5,116.5C 73.6972,108.549 73.1972,100.549 73,92.5C 72.2078,90.4127 71.0412,88.5793 69.5,87C 91.4936,83.8561 100.327,71.3561 96,49.5C 94.9196,47.0038 93.5862,44.6705 92,42.5C 91.5658,39.8208 91.7325,37.1541 92.5,34.5C 92.3845,30.9921 91.2178,27.9921 89,25.5C 83.6108,26.7325 78.7775,29.0658 74.5,32.5C 64.5,29.8333 54.5,29.8333 44.5,32.5C 40.2225,29.0658 35.3892,26.7325 30,25.5C 28.115,26.9918 27.115,28.9918 27,31.5C 26.8922,35.1765 26.8922,38.8432 27,42.5C 19.9241,53.726 19.9241,65.0594 27,76.5C 33.1272,82.8121 40.6272,86.3121 49.5,87C 46.3646,90.5715 44.698,94.7382 44.5,99.5C 43.5,99.5 42.5,99.5 41.5,99.5C 41.719,98.325 41.3857,97.325 40.5,96.5C 39.4937,96.9377 39.4937,97.6043 40.5,98.5C 39.3112,99.4287 37.9778,99.762 36.5,99.5C 36.6495,98.448 36.4828,97.448 36,96.5C 34.9148,99.8175 33.4148,100.151 31.5,97.5C 31.7093,96.914 32.0426,96.414 32.5,96C 30.8925,96.0187 29.2259,96.1854 27.5,96.5C 27.297,94.3618 26.297,92.6951 24.5,91.5C 25.0253,90.8076 25.6919,90.3076 26.5,90C 23.0123,89.6757 21.0123,87.8424 20.5,84.5C 19.0222,84.238 17.6888,84.5713 16.5,85.5C 21.2583,89.522 24.925,94.3553 27.5,100C 32.7497,103.46 38.4163,104.293 44.5,102.5C 45.7791,107.186 45.7791,111.853 44.5,116.5C 42.2351,117.647 39.9018,117.814 37.5,117C 16.94,108.285 4.27332,93.1187 -0.5,71.5C -0.5,64.1667 -0.5,56.8333 -0.5,49.5C 10.802,11.6639 36.1354,-4.16944 75.5,2C 99.0737,9.73504 113.74,25.5684 119.5,49.5 Z"/></g>
</svg>
