<?xml version="1.0" encoding="UTF-8"?>
<!DOCTYPE svg PUBLIC "-//W3C//DTD SVG 1.1//EN" "http://www.w3.org/Graphics/SVG/1.1/DTD/svg11.dtd">
<svg xmlns="http://www.w3.org/2000/svg" version="1.1" width="304px" height="80px" style="shape-rendering:geometricPrecision; text-rendering:geometricPrecision; image-rendering:optimizeQuality; fill-rule:evenodd; clip-rule:evenodd" xmlns:xlink="http://www.w3.org/1999/xlink">
<g><path style="opacity:0.994" fill="#06b304" d="M 8.5,-0.5 C 32.1667,-0.5 55.8333,-0.5 79.5,-0.5C 79.5,26.1667 79.5,52.8333 79.5,79.5C 55.8333,79.5 32.1667,79.5 8.5,79.5C 4.5,77.5 1.5,74.5 -0.5,70.5C -0.5,49.8333 -0.5,29.1667 -0.5,8.5C 1.5,4.5 4.5,1.5 8.5,-0.5 Z"/></g>
<g><path style="opacity:1" fill="#009800" d="M 79.5,-0.5 C 80.8333,-0.5 82.1667,-0.5 83.5,-0.5C 83.5,26.1667 83.5,52.8333 83.5,79.5C 82.1667,79.5 80.8333,79.5 79.5,79.5C 79.5,52.8333 79.5,26.1667 79.5,-0.5 Z"/></g>
<g><path style="opacity:0.998" fill="#03b302" d="M 83.5,-0.5 C 153.833,-0.5 224.167,-0.5 294.5,-0.5C 298.5,1.5 301.5,4.5 303.5,8.5C 303.5,29.1667 303.5,49.8333 303.5,70.5C 301.5,74.5 298.5,77.5 294.5,79.5C 224.167,79.5 153.833,79.5 83.5,79.5C 83.5,52.8333 83.5,26.1667 83.5,-0.5 Z"/></g>
<g><path style="opacity:1" fill="#fbfdfb" d="M 30.5,13.5 C 44.0893,11.097 55.5893,14.7637 65,24.5C 71.4097,37.6235 68.5764,48.4569 56.5,57C 50.6695,61.0829 44.6695,64.9162 38.5,68.5C 37.8333,65.8333 37.1667,63.1667 36.5,60.5C 28.1545,59.0775 20.9878,55.4109 15,49.5C 7.21883,32.0526 12.3855,20.0526 30.5,13.5 Z"/></g>
<g><path style="opacity:1" fill="#e9f6e9" d="M 219.5,29.5 C 220.867,27.1148 222.201,27.4482 223.5,30.5C 223.167,30.8333 222.833,31.1667 222.5,31.5C 221.735,30.3881 220.735,29.7214 219.5,29.5 Z"/></g>
<g><path style="opacity:1" fill="#eaf6e9" d="M 242.5,28.5 C 244.346,28.2222 245.68,28.8888 246.5,30.5C 245.185,32.3159 243.685,33.9825 242,35.5C 241.501,40.8229 241.334,46.1563 241.5,51.5C 240.167,51.5 238.833,51.5 237.5,51.5C 237.666,47.4862 237.499,43.4862 237,39.5C 234.636,41.3628 232.136,43.0295 229.5,44.5C 228.5,44.1667 227.833,43.5 227.5,42.5C 230.951,40.2238 234.284,37.7238 237.5,35C 239.765,33.2419 241.432,31.0752 242.5,28.5 Z"/></g>
<g><path style="opacity:1" fill="#fdfefd" d="M 104.5,29.5 C 105.5,29.5 106.5,29.5 107.5,29.5C 107.177,35.69 107.51,41.69 108.5,47.5C 111.833,47.5 115.167,47.5 118.5,47.5C 118.5,48.5 118.5,49.5 118.5,50.5C 113.833,50.5 109.167,50.5 104.5,50.5C 104.5,43.5 104.5,36.5 104.5,29.5 Z"/></g>
<g><path style="opacity:1" fill="#9ad89a" d="M 104.5,29.5 C 105.568,28.5655 106.901,28.2322 108.5,28.5C 108.5,34.8333 108.5,41.1667 108.5,47.5C 107.51,41.69 107.177,35.69 107.5,29.5C 106.5,29.5 105.5,29.5 104.5,29.5 Z"/></g>
<g><path style="opacity:1" fill="#f3faf2" d="M 121.5,28.5 C 122.833,28.5 124.167,28.5 125.5,28.5C 125.5,35.8333 125.5,43.1667 125.5,50.5C 124.167,50.5 122.833,50.5 121.5,50.5C 121.5,43.1667 121.5,35.8333 121.5,28.5 Z"/></g>
<g><path style="opacity:1" fill="#eef8ee" d="M 142.5,43.5 C 142.783,44.2891 143.283,44.9558 144,45.5C 144.171,40.1358 144.671,34.8025 145.5,29.5C 146.497,36.4684 146.83,43.4684 146.5,50.5C 144.856,50.7135 143.356,50.3802 142,49.5C 139.667,44.5 137.333,39.5 135,34.5C 134.501,39.8229 134.334,45.1563 134.5,50.5C 133.167,50.5 131.833,50.5 130.5,50.5C 130.5,43.1667 130.5,35.8333 130.5,28.5C 132.604,28.2011 134.604,28.5344 136.5,29.5C 139.069,33.9668 141.069,38.6335 142.5,43.5 Z"/></g>
<g><path style="opacity:1" fill="#c8e8c8" d="M 146.5,50.5 C 146.83,43.4684 146.497,36.4684 145.5,29.5C 144.671,34.8025 144.171,40.1358 144,45.5C 143.283,44.9558 142.783,44.2891 142.5,43.5C 143.487,38.6946 143.821,33.6946 143.5,28.5C 144.833,28.5 146.167,28.5 147.5,28.5C 147.825,36.0191 147.492,43.3524 146.5,50.5 Z"/></g>
<g><path style="opacity:1" fill="#9ad89a" d="M 166.5,29.5 C 161.833,29.5 157.167,29.5 152.5,29.5C 152.5,36.5 152.5,43.5 152.5,50.5C 151.508,43.3524 151.175,36.0191 151.5,28.5C 156.695,28.1795 161.695,28.5128 166.5,29.5 Z"/></g>
<g><path style="opacity:1" fill="#fefefe" d="M 166.5,29.5 C 166.5,30.1667 166.5,30.8333 166.5,31.5C 162.833,31.5 159.167,31.5 155.5,31.5C 155.205,33.7354 155.539,35.7354 156.5,37.5C 158.833,37.5 161.167,37.5 163.5,37.5C 163.5,38.5 163.5,39.5 163.5,40.5C 160.833,40.5 158.167,40.5 155.5,40.5C 155.5,42.8333 155.5,45.1667 155.5,47.5C 159.167,47.5 162.833,47.5 166.5,47.5C 166.5,48.5 166.5,49.5 166.5,50.5C 161.833,50.5 157.167,50.5 152.5,50.5C 152.5,43.5 152.5,36.5 152.5,29.5C 157.167,29.5 161.833,29.5 166.5,29.5 Z"/></g>
<g><path style="opacity:1" fill="#ecf7ec" d="M 207.5,28.5 C 210.462,28.1167 211.462,29.1167 210.5,31.5C 212.766,32.3142 215.1,32.8142 217.5,33C 218.022,33.5613 218.355,34.228 218.5,35C 215.461,42.7065 210.294,48.5398 203,52.5C 202.075,51.9535 201.242,51.2868 200.5,50.5C 206.219,47.115 210.552,42.4483 213.5,36.5C 211.579,35.359 209.579,35.1923 207.5,36C 206.215,38.4231 204.382,40.2564 202,41.5C 200.775,41.1377 199.609,40.6377 198.5,40C 203.064,37.3619 206.064,33.5286 207.5,28.5 Z"/></g>
<g><path style="opacity:1" fill="#31bb2b" d="M 23.5,30.5 C 23.5,34.1667 23.5,37.8333 23.5,41.5C 25.1667,41.5 26.8333,41.5 28.5,41.5C 29.404,42.209 29.7373,43.209 29.5,44.5C 26.5525,44.7771 23.7191,44.4438 21,43.5C 20.3333,39.1667 20.3333,34.8333 21,30.5C 21.9772,29.2264 22.8106,29.2264 23.5,30.5 Z"/></g>
<g><path style="opacity:1" fill="#23b91f" d="M 31.5,29.5 C 32.4959,29.4142 33.3292,29.7476 34,30.5C 34.6667,34.8333 34.6667,39.1667 34,43.5C 33.586,43.9574 33.086,44.2907 32.5,44.5C 31.5059,39.544 31.1725,34.544 31.5,29.5 Z"/></g>
<g><path style="opacity:1" fill="#23b81e" d="M 36.5,29.5 C 40.0565,31.2177 42.8898,33.8843 45,37.5C 45.1816,34.7737 45.6816,32.1071 46.5,29.5C 47.086,29.7093 47.586,30.0426 48,30.5C 48.7991,35.0868 48.6324,39.5868 47.5,44C 46.8333,44.6667 46.1667,44.6667 45.5,44C 43.6667,41.5 41.8333,39 40,36.5C 39.6667,38.8333 39.3333,41.1667 39,43.5C 38.3333,44.8333 37.6667,44.8333 37,43.5C 36.5008,38.8452 36.3342,34.1785 36.5,29.5 Z"/></g>
<g><path style="opacity:1" fill="#21b81c" d="M 50.5,29.5 C 53.1873,29.3359 55.854,29.5026 58.5,30C 59.8333,30.6667 59.8333,31.3333 58.5,32C 56.8659,32.4935 55.1992,32.6602 53.5,32.5C 53.5,33.5 53.5,34.5 53.5,35.5C 55.604,35.2011 57.604,35.5344 59.5,36.5C 57.9775,38.2825 55.9775,38.9492 53.5,38.5C 53.5,39.5 53.5,40.5 53.5,41.5C 55.604,41.2011 57.604,41.5344 59.5,42.5C 59.3333,42.8333 59.1667,43.1667 59,43.5C 56.2809,44.4438 53.4475,44.7771 50.5,44.5C 50.5,39.5 50.5,34.5 50.5,29.5 Z"/></g>
<g><path style="opacity:1" fill="#91de90" d="M 23.5,30.5 C 24.4794,33.6248 24.8128,36.9581 24.5,40.5C 26.099,40.2322 27.4324,40.5655 28.5,41.5C 26.8333,41.5 25.1667,41.5 23.5,41.5C 23.5,37.8333 23.5,34.1667 23.5,30.5 Z"/></g>
<g><path style="opacity:1" fill="#91d591" d="M 166.5,31.5 C 163.375,32.4794 160.042,32.8128 156.5,32.5C 156.5,34.1667 156.5,35.8333 156.5,37.5C 155.539,35.7354 155.205,33.7354 155.5,31.5C 159.167,31.5 162.833,31.5 166.5,31.5 Z"/></g>
<g><path style="opacity:1" fill="#fbfdfb" d="M 173.5,31.5 C 179.167,31.5 184.833,31.5 190.5,31.5C 190.5,37.5 190.5,43.5 190.5,49.5C 187.785,48.5492 184.951,47.8825 182,47.5C 179.049,47.8825 176.215,48.5492 173.5,49.5C 173.5,43.5 173.5,37.5 173.5,31.5 Z"/></g>
<g><path style="opacity:1" fill="#e6f5e6" d="M 219.5,29.5 C 220.798,34.4221 219.798,34.5887 216.5,30C 217.352,28.2716 218.352,28.105 219.5,29.5 Z"/></g>
<g><path style="opacity:1" fill="#e4f4e3" d="M 257.5,30.5 C 259.932,31.7502 262.266,33.2502 264.5,35C 263.534,36.6779 262.201,37.3446 260.5,37C 259.016,35.4263 257.349,34.093 255.5,33C 256.381,32.2917 257.047,31.4584 257.5,30.5 Z"/></g>
<g><path style="opacity:1" fill="#1bb515" d="M 176.5,34.5 C 180.167,34.5 183.833,34.5 187.5,34.5C 187.5,37.8333 187.5,41.1667 187.5,44.5C 183.833,44.5 180.167,44.5 176.5,44.5C 176.5,41.1667 176.5,37.8333 176.5,34.5 Z"/></g>
<g><path style="opacity:1" fill="#eaf6e9" d="M 275.5,32.5 C 276.965,35.6555 276.299,38.4888 273.5,41C 268.97,44.3623 264.303,47.5289 259.5,50.5C 257.238,49.6551 256.571,48.3217 257.5,46.5C 265.001,43.6545 271.001,38.9879 275.5,32.5 Z"/></g>
</svg>
