<svg id="レイヤー_1" data-name="レイヤー 1" xmlns="http://www.w3.org/2000/svg" viewBox="0 0 552.31 302.4"><defs><style>.cls-1{fill:#fff;}</style></defs><path class="cls-1" d="M61.7,213.36l-2.25,6.09H11.54a4.64,4.64,0,0,1-4.47-5.89l17.58-63.12H51.87s-17.51,62.68-17.59,62.92Zm145.86-.2c.09-.25,4-14.24,4-14.24a4.65,4.65,0,0,0-4.48-5.88H113.59l-8-21.83c21.81.82,37.77-13.51,37.44-33.82a38.4,38.4,0,0,0-38.36-37.72H45.85a9.27,9.27,0,0,0-8.94,6.79L31.5,125.88h71.84c8.28,0,12.61,4.43,13.4,10.55,1,7.41-5.51,13.75-14.84,13.75-5.93,0-31.79.28-31.79.28l23,62.87a9.28,9.28,0,0,0,8.66,5.93H234.64l1.75-6.1Zm148-113.49H337a9.3,9.3,0,0,0-7.82,4.27l-52.16,81-15.43-81.49A4.64,4.64,0,0,0,257,99.67H170a9.28,9.28,0,0,0-9,6.83L157.35,120a4.65,4.65,0,0,0,4.48,5.87H238l18.24,89.87a4.63,4.63,0,0,0,4.55,3.7h69.5l1.7-6.09H290.11l69.35-106.52A4.64,4.64,0,0,0,355.57,99.67Zm203.59,36.54c-1-20.48-18.11-36.52-39-36.52H462A9.27,9.27,0,0,0,453,106.5l-19.55,70.57a28.78,28.78,0,0,1-27.66,21.05h-.53a20.07,20.07,0,0,1-16.19-7.85A19.22,19.22,0,0,1,386,173.55l18.78-67.78h21.49l1.74-6.1H386.33a9.28,9.28,0,0,0-8.95,6.8l-16.66,60.1a45.27,45.27,0,0,0,7.76,39.89,46.46,46.46,0,0,0,33.92,17.75v.13H503.24l1.8-6.1H430.89a55,55,0,0,0,27.86-34.19l16.13-58.15h43c11.08,0,14.74,5.18,15,11.55.17,3.62-2.71,12.75-12.55,12.75-5.7,0-16.68.12-23.9.2a9.29,9.29,0,0,0-8.83,6.79l-3.79,13.57a4.63,4.63,0,0,0,4.5,5.88c9.3-.08,26.48-.22,32.44-.22a38.54,38.54,0,0,0,27.76-11.89A38.06,38.06,0,0,0,559.16,136.21Zm-30.73,68.95H489.2l-1.77,6.1H526.7ZM220,166.47c.08-.22,4.08-14.21,4.08-14.21a4.64,4.64,0,0,0-4.46-5.91H161.82a9.29,9.29,0,0,0-9,6.9l-3.59,13.48a4.64,4.64,0,0,0,4.49,5.84H233l1.64-6.1Z" transform="translate(-6.89 1.19)"/><path class="cls-1" d="M292.09,247.41a22.51,22.51,0,0,0-17.93-8.61h-.05a26.5,26.5,0,0,0-25.48,19.4l-4.19,15.2a21.78,21.78,0,0,0,3.73,19.2,22.5,22.5,0,0,0,17.93,8.61h0a26.5,26.5,0,0,0,25.48-19.39l4.19-15.21A21.78,21.78,0,0,0,292.09,247.41Zm-12.63,31a13.84,13.84,0,0,1-13.31,10.13h-.26a9.67,9.67,0,0,1-7.79-3.78,9.26,9.26,0,0,1-1.5-8.05l4.13-14.89h0l.08-.3a13.85,13.85,0,0,1,13.32-10.14h.25a9.69,9.69,0,0,1,7.8,3.78,9.29,9.29,0,0,1,1.5,8.05Z" transform="translate(-6.89 1.19)"/><path class="cls-1" d="M223.32,238.85c-14.76-.81-24,8.49-27,17a1.7,1.7,0,0,0,1.62,2.24h9.61a3.34,3.34,0,0,0,2.81-1.62,12.11,12.11,0,0,1,11.06-5.23c7.85.82,8.7,6.53,7.62,10.25-2.87,9.88-33.61,9.35-42.47,34.95a1.72,1.72,0,0,0,1.62,2.27h40.87a3.15,3.15,0,0,0,3-2.33l2.35-8.76a1.7,1.7,0,0,0-1.64-2.15H207c8.33-2.78,30-4.43,35-21.09C245.05,254.25,240.24,239.78,223.32,238.85Z" transform="translate(-6.89 1.19)"/><path class="cls-1" d="M329.51,238.85c-14.77-.81-24,8.49-27,17a1.69,1.69,0,0,0,1.62,2.24h9.61a3.36,3.36,0,0,0,2.81-1.62,12.09,12.09,0,0,1,11-5.23c7.86.82,8.71,6.53,7.63,10.25-2.87,9.88-33.61,9.35-42.48,34.95a1.72,1.72,0,0,0,1.62,2.27h40.88a3.15,3.15,0,0,0,3-2.33l2.35-8.76a1.71,1.71,0,0,0-1.65-2.15h-25.8c8.34-2.78,30-4.43,35-21.09C351.23,254.25,346.43,239.78,329.51,238.85Z" transform="translate(-6.89 1.19)"/><path class="cls-1" d="M358.64,243.46l-2.34,8.35a1.7,1.7,0,0,0,1.64,2.16h5.52l-11.88,42.58a1.71,1.71,0,0,0,1.64,2.16h8.66a3,3,0,0,0,2.85-2.17l14.84-53.16a1.71,1.71,0,0,0-1.65-2.16l-16.44.08A3,3,0,0,0,358.64,243.46Z" transform="translate(-6.89 1.19)"/><path class="cls-1" d="M93,4.38l7.39-4.94a2.06,2.06,0,0,1,3,.74l32.47,60.43a1,1,0,0,1-1.72,1.11L92.47,7.33A2,2,0,0,1,93,4.38ZM86.5,40.09l30.39,24.53a1,1,0,0,0,1.42-1.47L92.64,33.59a2.06,2.06,0,0,0-3.06-.05l-3.3,3.56A2,2,0,0,0,86.5,40.09ZM496,4.38,488.58-.56a2.05,2.05,0,0,0-2.95.74L453.16,60.61a1,1,0,0,0,1.71,1.11L496.46,7.33A2,2,0,0,0,496,4.38Zm6.68,32.72-3.3-3.56a2.06,2.06,0,0,0-3.06.05L470.62,63.15A1,1,0,0,0,472,64.62l30.4-24.53A2,2,0,0,0,502.65,37.1ZM136.35,2.16V25.07a1.44,1.44,0,0,0,1.44,1.43h14.63a1.43,1.43,0,0,0,1.44-1.43V22.84a1.43,1.43,0,0,0-1.44-1.43h-9.2V2.16A1.43,1.43,0,0,0,141.79.73h-4A1.44,1.44,0,0,0,136.35,2.16Zm21.25,0V25.07A1.43,1.43,0,0,0,159,26.5h4a1.43,1.43,0,0,0,1.43-1.43V2.16A1.43,1.43,0,0,0,163,.73h-4A1.43,1.43,0,0,0,157.6,2.16Zm12.76,0V25.07a1.43,1.43,0,0,0,1.44,1.43h3.42a1.44,1.44,0,0,0,1.44-1.45l-.2-16.16h.07l8.61,16.83a1.44,1.44,0,0,0,1.28.78h6.21a1.43,1.43,0,0,0,1.44-1.43V2.16A1.43,1.43,0,0,0,192.63.73h-3.39a1.44,1.44,0,0,0-1.44,1.44l.1,16.06h-.07L179.51,1.52a1.44,1.44,0,0,0-1.29-.79H171.8A1.43,1.43,0,0,0,170.36,2.16Zm28.84,0V25.07a1.43,1.43,0,0,0,1.44,1.43h15.7a1.44,1.44,0,0,0,1.44-1.43v-2a1.44,1.44,0,0,0-1.44-1.43H206.07V15.79h9.24a1.43,1.43,0,0,0,1.43-1.43v-2a1.43,1.43,0,0,0-1.43-1.44h-9.24V5.6h9.86a1.43,1.43,0,0,0,1.44-1.43v-2A1.43,1.43,0,0,0,215.93.73H200.64A1.43,1.43,0,0,0,199.2,2.16Zm36.1,22.91a1.43,1.43,0,0,0,1.43,1.43h8c8.79,0,15.25-3.36,15.25-13,0-10-6.28-12.77-15.25-12.77h-8a1.43,1.43,0,0,0-1.43,1.43Zm6.87-19.25h2.66c4.91,0,7.88,2.55,8,7.46a8,8,0,0,1-8,8.13h-2.66Zm41.17,13V17.6c0-5.72-2.59-10.78-9.71-10.78-5.81,0-10.06,3.48-10.3,9.5a10.43,10.43,0,0,0,9.94,10.6,20.89,20.89,0,0,0,7.33-.85,1.41,1.41,0,0,0,1-1.36V23.22a1.45,1.45,0,0,0-1.95-1.34,12.55,12.55,0,0,1-3.93.64c-3.25,0-5.28-1-5.65-3.7ZM270,15.06c.15-2.22,1.29-4,3.69-4,2.66,0,3.7,1.81,3.7,4ZM285.55,9.2l6.06,16.37a1.44,1.44,0,0,0,1.35.93h5.57a1.44,1.44,0,0,0,1.35-.93L305.94,9.2a1.44,1.44,0,0,0-1.35-1.94h-3.47a1.44,1.44,0,0,0-1.38,1L296,21H296L292.26,8.3a1.45,1.45,0,0,0-1.38-1h-4A1.43,1.43,0,0,0,285.55,9.2ZM328,18.82V17.6c0-5.72-2.58-10.78-9.71-10.78-5.81,0-10.05,3.48-10.29,9.5a10.42,10.42,0,0,0,9.93,10.6,21,21,0,0,0,7.34-.85,1.42,1.42,0,0,0,1-1.36V23.22a1.44,1.44,0,0,0-1.94-1.34,12.59,12.59,0,0,1-3.93.64c-3.25,0-5.28-1-5.65-3.7Zm-13.37-3.76c.15-2.22,1.3-4,3.69-4,2.66,0,3.7,1.81,3.7,4ZM332.57.24V25.07A1.43,1.43,0,0,0,334,26.5h3.78a1.43,1.43,0,0,0,1.43-1.43V.24a1.43,1.43,0,0,0-1.43-1.43H334A1.43,1.43,0,0,0,332.57.24ZM354.73,27c6.35,0,11.19-3.7,11.19-10S361.08,6.82,354.73,6.82s-11.19,3.69-11.19,10.08S348.38,27,354.73,27Zm0-4.66c-3.06,0-4.32-2.54-4.32-5.39s1.26-5.43,4.32-5.43,4.32,2.55,4.32,5.43S357.79,22.29,354.73,22.29ZM369.8,8.7V32.82a1.43,1.43,0,0,0,1.44,1.44H375a1.43,1.43,0,0,0,1.44-1.44v-9h.07a6.68,6.68,0,0,0,6.1,3.14c5.72,0,8.78-4.73,8.78-10.42,0-4.65-2.91-9.71-8.23-9.71-3,0-5.84,1.22-7.17,3.91h-.07v-2a1.44,1.44,0,0,0-1.44-1.44h-3.25A1.44,1.44,0,0,0,369.8,8.7Zm14.73,8c0,3.07-1.51,5.17-4,5.17-2.22,0-4.06-2.1-4.06-4.91s1.62-5,4.06-5S384.53,14.13,384.53,16.68Zm29.94,2.14V17.6c0-5.72-2.59-10.78-9.71-10.78-5.81,0-10.05,3.48-10.29,9.5a10.42,10.42,0,0,0,9.93,10.6,21,21,0,0,0,7.34-.85,1.42,1.42,0,0,0,1-1.36V23.22a1.44,1.44,0,0,0-1.94-1.34,12.59,12.59,0,0,1-3.93.64c-3.25,0-5.28-1-5.66-3.7ZM401.1,15.06c.15-2.22,1.29-4,3.69-4,2.66,0,3.7,1.81,3.7,4Zm31.58-8a14.07,14.07,0,0,0-2.25-.22c-2.88,0-4.54,1.55-5.69,4h-.07V8.7a1.44,1.44,0,0,0-1.44-1.44h-3.18a1.45,1.45,0,0,0-1.44,1.44V25.07a1.44,1.44,0,0,0,1.44,1.43h3.77a1.43,1.43,0,0,0,1.44-1.43V18.38c0-3.77,1.74-6,4.84-6a7.72,7.72,0,0,1,2.25.22Zm2.62,17.81a1.44,1.44,0,0,0,1.09,1.51,23.64,23.64,0,0,0,5.8.59c4.35,0,9-1.3,9-6.43,0-7.31-9.9-4.95-9.9-7.94,0-1.07,1.63-1.33,3.07-1.33a11.94,11.94,0,0,1,3.57.58,1.42,1.42,0,0,0,1.82-1.22l.17-1.53a1.43,1.43,0,0,0-1-1.53,19.68,19.68,0,0,0-5.66-.73c-3.84,0-8.2,1.81-8.2,6.24,0,6.94,9.45,4.65,9.45,7.9,0,1.33-1.33,1.56-2.69,1.56a15.73,15.73,0,0,1-4.56-.72,1.43,1.43,0,0,0-1.83,1.27ZM202.18,59.31A1.43,1.43,0,0,0,200.33,58a17,17,0,0,1-4.69.73c-5,0-8.6-3.07-8.6-8.13,0-4.8,3.17-8.34,8.05-8.34a13.11,13.11,0,0,1,5,1A1.42,1.42,0,0,0,202,42.09l.24-2.36a1.45,1.45,0,0,0-1-1.53,24.54,24.54,0,0,0-6.49-1c-8.49,0-14.77,4.47-14.77,13.44,0,9.75,7.94,13.22,14.81,13.22a26.84,26.84,0,0,0,6.46-.75,1.42,1.42,0,0,0,1.11-1.48Zm13.93,4.55c6.35,0,11.19-3.69,11.19-10s-4.84-10.08-11.19-10.08-11.19,3.69-11.19,10.08S209.76,63.86,216.11,63.86Zm0-4.65c-3.06,0-4.32-2.55-4.32-5.39s1.26-5.43,4.32-5.43,4.32,2.55,4.32,5.43S219.18,59.21,216.11,59.21Zm15.14-13.59V62a1.43,1.43,0,0,0,1.43,1.43h3.78A1.43,1.43,0,0,0,237.89,62V55.3c0-4.14,1.41-6,3.77-6,1.88,0,2.66,1.62,2.66,3.8V62a1.43,1.43,0,0,0,1.43,1.43h3.78A1.44,1.44,0,0,0,251,62V55.3c0-4.14,1.4-6,3.76-6,1.89,0,2.66,1.62,2.66,3.8V62a1.43,1.43,0,0,0,1.44,1.43h3.77A1.43,1.43,0,0,0,264,62V52.08c0-5.2-1.26-8.34-6.8-8.34a7.63,7.63,0,0,0-6.83,3.69c-1-2.51-3.28-3.69-6-3.69-3,0-5.68,1.22-7,4h-.08V45.62a1.43,1.43,0,0,0-1.43-1.44h-3.19A1.43,1.43,0,0,0,231.25,45.62Zm36.58,0V62a1.43,1.43,0,0,0,1.43,1.43H273A1.43,1.43,0,0,0,274.47,62V55.3c0-4.14,1.41-6,3.77-6,1.88,0,2.66,1.62,2.66,3.8V62a1.43,1.43,0,0,0,1.43,1.43h3.78A1.44,1.44,0,0,0,287.55,62V55.3c0-4.14,1.4-6,3.76-6,1.89,0,2.66,1.62,2.66,3.8V62a1.44,1.44,0,0,0,1.44,1.43h3.77A1.43,1.43,0,0,0,300.62,62V52.08c0-5.2-1.26-8.34-6.8-8.34A7.63,7.63,0,0,0,287,47.43c-1-2.51-3.28-3.69-6-3.69-3,0-5.68,1.22-7,4h-.08V45.62a1.43,1.43,0,0,0-1.43-1.44h-3.19A1.43,1.43,0,0,0,267.83,45.62ZM325.36,62V45.62a1.43,1.43,0,0,0-1.43-1.44h-3.78a1.43,1.43,0,0,0-1.43,1.44v6.69c0,4.13-1.41,6-4.14,6-1.81,0-3.06-1.21-3.06-4.83V45.62a1.44,1.44,0,0,0-1.44-1.44H306.3a1.43,1.43,0,0,0-1.43,1.44V56.18c0,4,2.1,7.68,7.35,7.68,3,0,5.68-1.21,7-4h.08V62a1.43,1.43,0,0,0,1.43,1.43h3.19A1.43,1.43,0,0,0,325.36,62Zm4.95-16.37V62a1.44,1.44,0,0,0,1.44,1.43h3.77A1.43,1.43,0,0,0,337,62V55.3c0-4.14,1.4-6,4.13-6,1.81,0,3.07,1.22,3.07,4.84V62a1.43,1.43,0,0,0,1.44,1.43h3.77A1.44,1.44,0,0,0,350.81,62V51.42c0-4-2.11-7.68-7.35-7.68-3,0-5.69,1.22-7,4h-.07V45.62a1.44,1.44,0,0,0-1.44-1.44h-3.18A1.44,1.44,0,0,0,330.31,45.62Zm25.8,0V62a1.44,1.44,0,0,0,1.44,1.43h3.77A1.43,1.43,0,0,0,362.76,62V45.62a1.43,1.43,0,0,0-1.44-1.44h-3.77A1.44,1.44,0,0,0,356.11,45.62Zm10.16,0V47.4a1.44,1.44,0,0,0,1.44,1.43h2.37v7.83c0,4.58,1.44,7.2,7.38,7.2a21.61,21.61,0,0,0,2.86-.2,1.44,1.44,0,0,0,1.25-1.5V61c0-.88-.45-1.86-2.18-1.55-2.08.38-2.66-1.18-2.66-3.51V48.83h3.21a1.43,1.43,0,0,0,1.44-1.43V45.62a1.43,1.43,0,0,0-1.44-1.44h-3.21v-4.4a1.44,1.44,0,0,0-1.87-1.37l-3.66,1.14a1.43,1.43,0,0,0-1,1.37v3.26h-2.48A1.44,1.44,0,0,0,366.27,45.62Zm19,24.25a1.42,1.42,0,0,0,1.17,1.54,19.32,19.32,0,0,0,2.85.21c6.09,0,7.53-4.69,9.41-9.53l6.29-16a1.44,1.44,0,0,0-1.34-2h-3.49a1.45,1.45,0,0,0-1.37,1l-3.63,11.55h-.08l-3.81-11.57a1.43,1.43,0,0,0-1.36-1h-4a1.44,1.44,0,0,0-1.34,2l7,17.71c-.48,1.7-1.57,3-3.36,2.66-2-.32-2.7-.22-2.87,1.46Zm-22-31.53a3.81,3.81,0,1,1-3.8-3.8A3.81,3.81,0,0,1,363.24,38.34Z" transform="translate(-6.89 1.19)"/></svg>