<svg width="292" height="159" viewBox="0 0 292 159" fill="none" xmlns="http://www.w3.org/2000/svg">
<g clip-path="url(#clip0_2_300)">
<path d="M28.9726 112.835L27.8095 116.043H2.48487C1.11025 116.043 0.0528564 114.938 0.0528564 113.624C0.0528564 113.414 0.105726 113.203 0.158596 112.94L9.46368 79.7629H23.7914C23.7914 79.7629 14.5392 112.73 14.4863 112.835H28.9726ZM106.11 112.73C106.163 112.625 108.224 105.264 108.224 105.264C108.595 103.949 107.802 102.635 106.48 102.267C106.268 102.214 106.057 102.162 105.845 102.162H56.4121L52.1825 90.6994C63.7081 91.12 72.1673 83.6012 71.9558 72.9276C71.7443 61.9385 62.7565 53.1052 51.6538 53.1052H20.6192C18.3987 53.1052 16.4954 54.5774 15.9138 56.6806L13.0588 66.881H51.0194C55.4076 66.881 57.681 69.1944 58.1039 72.4018C58.6326 76.2927 55.1961 79.6577 50.2792 79.6577C47.1599 79.6577 33.4666 79.8155 33.4666 79.8155L45.6266 112.888C46.3668 114.781 48.1644 115.99 50.2263 115.99H120.49L121.442 112.783L106.11 112.73ZM184.357 53.0526H174.523C172.831 53.0526 171.298 53.8938 170.399 55.3135L142.801 97.9028L134.659 55.0506C134.448 53.8938 133.443 53.0526 132.227 53.0526H86.2307C84.0101 53.0526 82.0539 54.5248 81.4724 56.628L79.5691 63.7262C79.199 65.0407 79.992 66.3552 81.3138 66.7232C81.5252 66.7758 81.7367 66.8284 81.9482 66.8284H122.235L131.857 114.097C132.069 115.254 133.073 116.043 134.236 116.043H170.981L171.88 112.835H149.727L186.419 56.7857C187.159 55.629 186.842 54.1567 185.679 53.4206C185.256 53.1577 184.833 53.0526 184.357 53.0526ZM292 72.244C291.471 61.4653 282.431 53.0526 271.381 53.0526H240.611C238.39 53.0526 236.434 54.5248 235.852 56.628L225.543 93.749C223.692 100.269 217.718 104.791 210.898 104.843H210.633C207.303 104.896 204.13 103.371 202.068 100.689C200.165 98.1657 199.584 94.9058 200.429 91.9087L210.369 56.2599H221.736L222.635 53.0526H200.588C198.368 53.0526 196.464 54.5248 195.83 56.628L187.001 88.2282C184.939 95.4841 186.472 103.266 191.124 109.207C195.46 114.728 202.016 118.146 209.047 118.566V118.619H262.34L263.292 115.412H224.168C231.358 111.731 236.698 105.211 238.919 97.4296L247.431 66.8284H270.165C276.033 66.8284 277.937 69.5625 278.095 72.875C278.201 74.7679 276.668 79.6052 271.486 79.6052C268.473 79.6052 262.657 79.6577 258.851 79.7103C256.683 79.7629 254.78 81.1825 254.198 83.2857L252.189 90.4365C251.819 91.751 252.559 93.0655 253.881 93.4335C254.092 93.4861 254.357 93.5387 254.568 93.5387C259.485 93.4861 268.579 93.4335 271.698 93.4335C277.249 93.4335 282.536 91.1726 286.396 87.1766C290.202 83.1806 292.264 77.7649 292 72.244ZM275.716 108.524H254.991L254.039 111.731H274.817L275.716 108.524ZM112.666 88.1756C112.718 88.0704 114.833 80.7093 114.833 80.7093C115.203 79.3948 114.463 78.0804 113.141 77.7123C112.93 77.6597 112.718 77.6071 112.454 77.6071H81.8953C79.6748 77.6071 77.7186 79.0794 77.137 81.2351L75.2337 88.3333C74.8636 89.6478 75.6567 90.9623 76.9784 91.3304C77.1899 91.3829 77.4014 91.4355 77.6129 91.4355H119.539L120.385 88.2282L112.666 88.1756Z" fill="#029823"/>
<path d="M145.128 130.712C142.854 127.82 139.365 126.138 135.664 126.19C129.372 126.19 123.874 130.397 122.182 136.391L119.962 144.383C118.957 147.853 119.697 151.586 121.918 154.478C124.191 157.37 127.681 159.053 131.381 159C137.673 159 143.171 154.846 144.863 148.8L147.084 140.808C148.088 137.285 147.348 133.552 145.128 130.712ZM138.466 147.012C137.567 150.167 134.712 152.322 131.434 152.322H131.276C129.69 152.322 128.156 151.586 127.152 150.324C126.253 149.115 125.936 147.538 126.359 146.118L128.527 138.284L128.579 138.126C129.478 134.971 132.333 132.815 135.611 132.815H135.717C137.356 132.815 138.836 133.552 139.841 134.813C140.739 136.023 141.057 137.6 140.634 139.072L138.466 147.012Z" fill="#029823"/>
<path d="M108.753 126.19C100.928 125.77 96.0645 130.66 94.4784 135.129C94.3198 135.602 94.5841 136.128 95.0599 136.286C95.1657 136.338 95.2714 136.338 95.3243 136.338H100.4C101.034 136.338 101.563 136.023 101.88 135.497C103.202 133.604 105.422 132.553 107.749 132.763C111.925 133.184 112.348 136.181 111.767 138.126C110.234 143.331 94.0025 143.068 89.2971 156.529C89.1385 157.002 89.4029 157.528 89.8787 157.686C89.9844 157.738 90.0902 157.738 90.143 157.738H111.767C112.507 157.738 113.141 157.212 113.353 156.529L114.622 151.902C114.728 151.429 114.463 150.955 113.987 150.798C113.934 150.798 113.829 150.745 113.723 150.745H100.083C104.471 149.273 115.944 148.432 118.587 139.651C120.279 134.288 117.741 126.664 108.753 126.19Z" fill="#029823"/>
<path d="M164.901 126.19C157.076 125.77 152.212 130.66 150.626 135.129C150.467 135.602 150.732 136.075 151.155 136.233C151.261 136.286 151.366 136.286 151.472 136.286H156.548C157.182 136.286 157.711 135.97 158.028 135.444C159.35 133.552 161.57 132.5 163.844 132.71C168.02 133.131 168.443 136.128 167.862 138.073C166.328 143.279 150.097 143.016 145.392 156.476C145.233 156.949 145.498 157.475 145.974 157.633C146.079 157.686 146.185 157.686 146.238 157.686H167.862C168.602 157.686 169.236 157.16 169.448 156.476L170.717 151.849C170.822 151.376 170.558 150.903 170.082 150.745C170.029 150.745 169.924 150.692 169.871 150.692H156.23C160.619 149.22 172.091 148.379 174.735 139.598C176.374 134.288 173.836 126.664 164.901 126.19Z" fill="#029823"/>
<path d="M192.393 126.19C184.569 125.77 179.705 130.66 178.118 135.129C177.96 135.602 178.224 136.075 178.647 136.233C178.753 136.286 178.859 136.286 178.964 136.286H184.04C184.674 136.286 185.203 135.97 185.52 135.444C186.842 133.552 189.062 132.5 191.336 132.71C195.513 133.131 195.936 136.128 195.354 138.073C193.821 143.279 177.59 143.016 172.884 156.476C172.726 156.949 172.99 157.475 173.466 157.633C173.572 157.686 173.677 157.686 173.73 157.686H195.354C196.094 157.686 196.729 157.16 196.94 156.476L198.209 151.849C198.315 151.376 198.05 150.903 197.575 150.745C197.522 150.745 197.416 150.692 197.363 150.692H183.723C188.111 149.22 199.584 148.379 202.227 139.598C203.866 134.288 201.328 126.664 192.393 126.19Z" fill="#029823"/>
<path d="M45.5209 2.94444L49.4333 0.368056C49.9091 0.0525793 50.5964 0.157738 50.9665 0.630952C50.9665 0.683532 51.0194 0.683532 51.0194 0.736111L68.2021 32.494C68.3607 32.7569 68.3078 33.0724 68.0434 33.2302C67.7791 33.3879 67.4619 33.3353 67.3033 33.0724L45.2566 4.46925C44.8865 3.99603 44.9922 3.36508 45.4152 2.99702C45.468 2.99702 45.468 2.94444 45.5209 2.94444ZM42.0844 21.7153L58.1568 34.5972C58.3683 34.8075 58.7384 34.8075 58.897 34.5972C59.0556 34.3869 59.1084 34.0188 58.897 33.8611L45.3623 18.2976C44.9922 17.8244 44.3049 17.8244 43.8291 18.1925C43.7762 18.1925 43.7762 18.245 43.7233 18.245L41.9786 20.1379C41.5557 20.5585 41.5557 21.2421 41.9786 21.6101C42.0315 21.6627 42.0315 21.6627 42.0844 21.7153ZM258.586 2.94444L254.674 0.368056C254.198 0.0525793 253.511 0.157738 253.194 0.683532C253.194 0.736111 253.141 0.736111 253.141 0.78869L235.958 32.5466C235.799 32.8095 235.852 33.125 236.117 33.2827C236.381 33.4405 236.698 33.3879 236.857 33.125L258.851 4.52183C259.221 4.04861 259.168 3.41766 258.692 3.0496C258.639 2.99702 258.639 2.94444 258.586 2.94444ZM262.129 20.1379L260.384 18.245C259.961 17.8244 259.274 17.7718 258.851 18.1925C258.798 18.1925 258.798 18.245 258.798 18.2976L245.21 33.8611C244.999 34.0714 244.999 34.3869 245.21 34.5972C245.422 34.8075 245.739 34.8075 245.95 34.5972L262.023 21.7153C262.499 21.3472 262.604 20.7163 262.234 20.2431C262.181 20.1905 262.129 20.1905 262.129 20.1379ZM68.4664 1.7877V13.8284C68.4664 14.249 68.7836 14.5645 69.2066 14.5645H76.9256C77.3485 14.5645 77.6658 14.249 77.6658 13.8284V12.619C77.6658 12.1984 77.3485 11.8829 76.9256 11.8829H72.0616V1.7877C72.0616 1.36706 71.7443 1.05159 71.3214 1.05159H69.2066C68.7836 0.999008 68.4664 1.36706 68.4664 1.7877ZM79.6748 1.7877V13.8284C79.6748 14.249 79.992 14.5645 80.415 14.5645H82.5298C82.9527 14.5645 83.27 14.249 83.27 13.8284V1.7877C83.27 1.36706 82.9527 1.05159 82.5298 1.05159H80.415C79.992 0.999008 79.6748 1.36706 79.6748 1.7877ZM86.4421 1.7877V13.8284C86.4421 14.249 86.7594 14.5645 87.1823 14.5645H88.9799C89.4029 14.5645 89.7201 14.249 89.7201 13.8284L89.6143 5.31052H89.6672L94.214 14.1438C94.3198 14.4067 94.5841 14.5645 94.9013 14.5645H98.1792C98.6022 14.5645 98.9194 14.249 98.9194 13.8284V1.7877C98.9194 1.36706 98.6022 1.05159 98.1792 1.05159H96.3817C95.9587 1.05159 95.6415 1.36706 95.6415 1.7877L95.6944 10.253H95.6415L91.2533 1.47222C91.1476 1.20933 90.8832 1.05159 90.566 1.05159H87.1823C86.7594 0.999008 86.4421 1.36706 86.4421 1.7877C86.4421 1.73512 86.4421 1.73512 86.4421 1.7877ZM101.669 1.7877V13.8284C101.669 14.249 101.986 14.5645 102.409 14.5645H110.709C111.132 14.5645 111.45 14.249 111.45 13.8284V12.7768C111.45 12.3561 111.132 12.0407 110.709 12.0407H105.264V8.93849H110.128C110.551 8.93849 110.868 8.62302 110.868 8.20238V7.15079C110.868 6.73016 110.551 6.41468 110.128 6.41468H105.264V3.5754H110.498C110.921 3.5754 111.238 3.25992 111.238 2.83929V1.7877C111.238 1.36706 110.921 1.05159 110.498 1.05159H102.409C102.039 0.999008 101.669 1.36706 101.669 1.7877C101.669 1.73512 101.669 1.73512 101.669 1.7877ZM120.755 13.8284C120.755 14.249 121.072 14.5645 121.495 14.5645H125.724C130.377 14.5645 133.761 12.7768 133.761 7.72917C133.761 2.47123 130.43 0.999008 125.724 0.999008H121.495C121.072 0.999008 120.755 1.31448 120.755 1.73512V13.8284ZM124.403 3.68056H125.83C128.421 3.68056 130.007 4.99504 130.06 7.62401C130.113 9.9375 128.209 11.8829 125.883 11.8829H125.83H124.403V3.68056ZM146.132 10.5159V9.88492C146.132 6.8879 144.758 4.20635 141.004 4.20635C137.937 4.20635 135.664 6.04663 135.558 9.20139C135.505 12.1458 137.832 14.6171 140.792 14.7748C142.114 14.88 143.436 14.7222 144.652 14.3016C144.969 14.1964 145.181 13.9335 145.181 13.5655V12.7768C145.181 12.3561 144.81 12.0407 144.387 12.0407C144.282 12.0407 144.229 12.0407 144.123 12.0933C143.436 12.3036 142.749 12.4087 142.061 12.4087C140.369 12.4087 139.259 11.8829 139.1 10.4633L146.132 10.5159ZM139.1 8.51786C139.153 7.36111 139.788 6.41468 141.057 6.41468C142.484 6.41468 143.013 7.36111 143.013 8.51786H139.1ZM147.348 5.46825L150.573 14.0913C150.679 14.4067 150.996 14.5645 151.313 14.5645H154.274C154.591 14.5645 154.856 14.3542 155.014 14.0913L158.239 5.46825C158.398 5.1002 158.187 4.62698 157.764 4.46925C157.658 4.41667 157.605 4.41667 157.499 4.41667H155.649C155.332 4.41667 155.014 4.62698 154.909 4.94246L152.952 11.62L150.996 4.94246C150.89 4.62698 150.573 4.41667 150.256 4.41667H148.141C147.718 4.41667 147.401 4.78472 147.401 5.20536C147.295 5.31052 147.295 5.36309 147.348 5.46825ZM169.765 10.5159V9.88492C169.765 6.8879 168.39 4.20635 164.637 4.20635C161.57 4.20635 159.35 6.04663 159.191 9.20139C159.138 12.1458 161.464 14.6171 164.425 14.7748C165.747 14.88 167.069 14.7222 168.285 14.3016C168.602 14.1964 168.813 13.9335 168.813 13.5655V12.7768C168.813 12.3561 168.443 12.0407 168.02 12.0407C167.915 12.0407 167.862 12.0407 167.756 12.0933C167.069 12.3036 166.381 12.4087 165.694 12.4087C164.002 12.4087 162.892 11.8829 162.733 10.4633L169.765 10.5159ZM162.68 8.51786C162.733 7.36111 163.368 6.41468 164.637 6.41468C166.064 6.41468 166.593 7.36111 166.593 8.51786H162.68ZM172.197 0.736111V13.7758C172.197 14.1964 172.514 14.5119 172.937 14.5119H174.946C175.369 14.5119 175.686 14.1964 175.686 13.7758V0.736111C175.686 0.315476 175.369 0 174.946 0H172.937C172.514 0 172.197 0.315476 172.197 0.736111ZM183.881 14.8274C187.265 14.8274 189.803 12.8819 189.803 9.56944C189.803 6.25694 187.265 4.20635 183.881 4.20635C180.498 4.20635 177.96 6.15179 177.96 9.51686C177.96 12.8819 180.55 14.8274 183.881 14.8274ZM183.881 12.3561C182.242 12.3561 181.608 11.0417 181.608 9.51686C181.608 7.99206 182.295 6.67758 183.881 6.67758C185.467 6.67758 186.155 7.99206 186.155 9.51686C186.155 11.0417 185.52 12.3561 183.881 12.3561ZM191.865 5.20536V17.877C191.865 18.2976 192.182 18.6131 192.605 18.6131H194.614C195.037 18.6131 195.354 18.2976 195.354 17.877V13.1448H195.407C196.094 14.249 197.31 14.88 198.632 14.7748C201.646 14.7748 203.284 12.3036 203.284 9.30655C203.284 6.8879 201.751 4.20635 198.949 4.20635C197.363 4.20635 195.883 4.8373 195.143 6.25694H195.09V5.20536C195.09 4.78472 194.772 4.46925 194.349 4.46925H192.658C192.235 4.46925 191.865 4.78472 191.865 5.20536ZM199.636 9.41171C199.636 11.0417 198.843 12.1458 197.522 12.1458C196.359 12.1458 195.354 11.0417 195.354 9.56944C195.354 8.09722 196.2 6.94048 197.522 6.94048C198.843 6.94048 199.636 8.04464 199.636 9.41171ZM215.497 10.5159V9.88492C215.497 6.8879 214.123 4.20635 210.369 4.20635C207.303 4.20635 205.082 6.04663 204.923 9.20139C204.871 12.1458 207.197 14.6171 210.158 14.7748C211.479 14.88 212.801 14.7222 214.017 14.3016C214.334 14.1964 214.546 13.9335 214.546 13.5655V12.7768C214.546 12.3561 214.176 12.0407 213.753 12.0407C213.647 12.0407 213.594 12.0407 213.488 12.0933C212.801 12.3036 212.114 12.4087 211.426 12.4087C209.735 12.4087 208.624 11.8829 208.413 10.4633L215.497 10.5159ZM208.413 8.51786C208.466 7.36111 209.1 6.41468 210.369 6.41468C211.797 6.41468 212.325 7.36111 212.325 8.51786H208.413ZM225.12 4.31151C224.697 4.25893 224.327 4.20635 223.904 4.20635C222.37 4.20635 221.525 4.99504 220.89 6.30952H220.837V5.20536C220.837 4.78472 220.52 4.46925 220.097 4.46925H218.405C217.982 4.46925 217.665 4.78472 217.665 5.20536V13.8284C217.665 14.249 217.982 14.5645 218.405 14.5645H220.414C220.837 14.5645 221.154 14.249 221.154 13.8284V10.3056C221.154 8.30754 222.053 7.15079 223.692 7.15079C224.115 7.15079 224.485 7.15079 224.855 7.25595L225.12 4.31151ZM226.494 13.7232C226.441 14.0913 226.706 14.4067 227.076 14.5119C228.08 14.7222 229.085 14.8274 230.142 14.8274C232.469 14.8274 234.901 14.1438 234.901 11.4623C234.901 7.62401 229.667 8.83333 229.667 7.30853C229.667 6.73016 230.512 6.625 231.305 6.625C231.94 6.625 232.574 6.73016 233.209 6.94048C233.632 7.04563 234.002 6.83532 234.16 6.41468C234.16 6.3621 234.16 6.30952 234.213 6.25694L234.319 5.46825C234.372 5.1002 234.16 4.78472 233.79 4.67956C232.839 4.41667 231.834 4.25893 230.777 4.31151C228.768 4.31151 226.441 5.25794 226.441 7.57143C226.441 11.1994 231.464 9.99008 231.464 11.7252C231.464 12.4087 230.777 12.5665 230.037 12.5665C229.244 12.5665 228.398 12.4087 227.605 12.1984C227.182 12.0933 226.759 12.3036 226.653 12.7242C226.653 12.7768 226.653 12.8294 226.6 12.8819L226.494 13.7232ZM103.255 31.8105C103.255 31.3899 102.885 31.0744 102.462 31.0744C102.409 31.0744 102.356 31.0744 102.25 31.127C101.457 31.3899 100.611 31.495 99.7653 31.495C97.1219 31.495 95.2185 29.8651 95.2185 27.2361C95.2185 24.7123 96.9104 22.872 99.501 22.872C100.4 22.872 101.299 23.0298 102.144 23.3978C102.515 23.5556 102.99 23.3452 103.096 22.9772C103.096 22.9246 103.149 22.872 103.149 22.8194L103.255 21.5575C103.308 21.1895 103.096 20.874 102.726 20.7688C101.616 20.4534 100.453 20.2431 99.2895 20.2431C94.7956 20.2431 91.4648 22.6091 91.4648 27.2887C91.4648 32.4415 95.6415 34.2292 99.2895 34.2292C100.453 34.2292 101.563 34.124 102.726 33.8085C103.096 33.7034 103.36 33.3879 103.308 33.0198L103.255 31.8105ZM110.604 34.2292C113.987 34.2292 116.525 32.2837 116.525 28.9712C116.525 25.6587 113.987 23.6607 110.604 23.6607C107.22 23.6607 104.682 25.6061 104.682 28.9186C104.682 32.2311 107.273 34.2292 110.604 34.2292ZM110.604 31.7579C108.965 31.7579 108.33 30.4435 108.33 28.9186C108.33 27.3938 109.018 26.0794 110.604 26.0794C112.19 26.0794 112.877 27.3938 112.877 28.9186C112.877 30.4435 112.243 31.7579 110.604 31.7579ZM118.64 24.6071V33.2302C118.64 33.6508 118.957 33.9663 119.38 33.9663H121.389C121.812 33.9663 122.129 33.6508 122.129 33.2302V29.7073C122.129 27.5516 122.869 26.5526 124.138 26.5526C125.143 26.5526 125.566 27.3938 125.566 28.5506V33.2302C125.566 33.6508 125.883 33.9663 126.306 33.9663H128.315C128.738 33.9663 129.108 33.6508 129.108 33.2302V29.7073C129.108 27.5516 129.848 26.5526 131.117 26.5526C132.122 26.5526 132.545 27.3938 132.545 28.5506V33.2302C132.545 33.6508 132.862 33.9663 133.285 33.9663H135.294C135.717 33.9663 136.034 33.5982 136.034 33.2302V28.0248C136.034 25.2907 135.347 23.6607 132.439 23.6607C130.959 23.6081 129.584 24.3442 128.844 25.6061C128.315 24.2917 127.099 23.6607 125.672 23.6607C124.085 23.6607 122.658 24.2917 121.971 25.7639H121.918V24.6597C121.918 24.2391 121.601 23.9236 121.178 23.9236H119.486C118.957 23.871 118.64 24.1865 118.64 24.6071ZM137.937 24.6071V33.2302C137.937 33.6508 138.255 33.9663 138.678 33.9663H140.634C141.057 33.9663 141.374 33.6508 141.427 33.2302V29.7073C141.427 27.5516 142.167 26.5526 143.436 26.5526C144.44 26.5526 144.863 27.3938 144.863 28.5506V33.2302C144.863 33.6508 145.181 33.9663 145.603 33.9663H147.613C148.036 33.9663 148.353 33.6508 148.353 33.2302V29.7073C148.353 27.5516 149.093 26.5526 150.362 26.5526C151.366 26.5526 151.789 27.3938 151.789 28.5506V33.2302C151.789 33.6508 152.106 33.9663 152.529 33.9663H154.538C154.961 33.9663 155.279 33.6508 155.279 33.2302V28.0248C155.279 25.2907 154.591 23.6607 151.684 23.6607C150.203 23.6081 148.829 24.3442 148.088 25.6061C147.56 24.2917 146.344 23.6607 144.916 23.6607C143.33 23.6607 141.903 24.2917 141.215 25.7639H141.162V24.6597C141.162 24.2391 140.845 23.9236 140.422 23.9236H138.73C138.307 23.8185 137.99 24.1865 137.937 24.6071ZM168.39 33.2302V24.6071C168.39 24.1865 168.073 23.871 167.65 23.871H165.641C165.218 23.871 164.901 24.1865 164.901 24.6071V28.13C164.901 30.2857 164.161 31.2847 162.733 31.2847C161.782 31.2847 161.094 30.6538 161.094 28.7609V24.6071C161.094 24.1865 160.777 23.871 160.354 23.871H158.345C157.922 23.871 157.605 24.1865 157.605 24.6071V30.1806C157.605 32.2837 158.715 34.2292 161.517 34.2292C163.103 34.2292 164.531 33.5982 165.218 32.126H165.271V33.2302C165.271 33.6508 165.588 33.9663 166.011 33.9663H167.703C168.02 33.9663 168.39 33.6508 168.39 33.2302ZM170.981 24.6071V33.2302C170.981 33.6508 171.298 33.9663 171.721 33.9663H173.73C174.153 33.9663 174.523 33.6508 174.523 33.2302C174.523 33.2302 174.523 33.2302 174.523 33.1776V29.6548C174.523 27.499 175.263 26.5 176.691 26.5C177.643 26.5 178.33 27.131 178.33 29.0238V33.1776C178.33 33.5982 178.647 33.9137 179.07 33.9137H181.079C181.502 33.9137 181.819 33.5456 181.819 33.1776V27.6567C181.819 25.5536 180.709 23.6081 177.907 23.6081C176.321 23.6081 174.893 24.2391 174.206 25.7113H174.153V24.6071C174.153 24.1865 173.836 23.871 173.413 23.871H171.721C171.351 23.871 170.981 24.1865 170.981 24.6071ZM184.621 24.6071V33.2302C184.621 33.6508 184.939 33.9663 185.362 33.9663H187.371C187.794 33.9663 188.111 33.6508 188.111 33.2302V24.6071C188.111 24.1865 187.794 23.871 187.371 23.871H185.362C184.992 23.871 184.621 24.1865 184.621 24.6071ZM190.014 24.6071V25.5536C190.014 25.9742 190.331 26.2897 190.754 26.2897H192.023V30.3909C192.023 32.8095 192.763 34.1766 195.936 34.1766C196.464 34.1766 196.94 34.124 197.469 34.0714C197.839 34.0188 198.156 33.6508 198.103 33.2827V32.6518C198.103 32.1786 197.839 31.6528 196.94 31.8631C195.83 32.0734 195.513 31.2321 195.513 30.0228V26.2897H197.204C197.627 26.2897 197.945 25.9742 197.945 25.5536V24.6071C197.945 24.1865 197.627 23.871 197.204 23.871H195.513V21.5575C195.513 21.1369 195.195 20.8214 194.772 20.8214C194.72 20.8214 194.614 20.8214 194.561 20.874L192.605 21.4524C192.288 21.5575 192.076 21.8204 192.076 22.1885V23.9236H190.754C190.331 23.871 190.014 24.1865 190.014 24.6071ZM200.059 37.3839C200.007 37.752 200.271 38.12 200.694 38.1726C201.17 38.2252 201.698 38.2778 202.227 38.2778C205.452 38.2778 206.192 35.8065 207.197 33.2827L210.528 24.87C210.686 24.502 210.528 24.0288 210.105 23.871C209.999 23.8185 209.893 23.8185 209.787 23.8185H207.937C207.62 23.8185 207.303 24.0288 207.197 24.3442L205.294 30.3909H205.241L203.232 24.2917C203.126 23.9762 202.862 23.7659 202.491 23.7659H200.377C199.954 23.7659 199.636 24.0813 199.584 24.502C199.584 24.6071 199.584 24.7123 199.636 24.8175L203.337 34.124C203.073 35.0179 202.491 35.7014 201.54 35.5436C200.482 35.3859 200.112 35.4385 200.007 36.3323L200.059 37.3839ZM188.428 20.7688C188.428 21.873 187.529 22.7669 186.419 22.7669C185.309 22.7669 184.41 21.873 184.41 20.7688C184.41 19.6647 185.309 18.7708 186.419 18.7708C187.529 18.8234 188.375 19.6647 188.428 20.7688Z" fill="#029823"/>
</g>
<defs>
<clipPath id="clip0_2_300">
<rect width="292" height="159" fill="white"/>
</clipPath>
</defs>
</svg>
