<svg width="63" height="23" viewBox="0 0 63 23" fill="none" xmlns="http://www.w3.org/2000/svg">
<g clip-path="url(#clip0_2_284)">
<path d="M6.27175 12.9975L5.98924 13.6757H0.50852C0.226009 13.6757 0 13.4496 0 13.1671C0 13.1106 0 13.0541 0 12.9975L1.97758 5.82064H5.0852C5.0852 5.82064 3.10762 12.941 3.10762 12.9975H6.27175ZM22.8834 12.9975L23.3354 11.3587C23.3919 11.0762 23.2789 10.7936 22.9964 10.6806C22.9399 10.6806 22.8834 10.6806 22.8269 10.6806H12.148L11.2439 8.1941C13.73 8.30713 15.5381 6.6683 15.5381 4.35135C15.5381 1.92138 13.5605 0 11.1309 0H4.46368C3.95516 0 3.55964 0.339066 3.44664 0.791155L2.82511 2.99509H11.0179C11.7525 2.88206 12.487 3.44717 12.5435 4.18182C12.6565 5.02948 11.922 5.76413 10.8484 5.76413L7.23229 5.82064L9.83139 12.9975C10.0009 13.3931 10.3964 13.6757 10.8484 13.6757H25.991L26.1605 12.9975H22.8834ZM39.7776 0H37.6305C37.2915 0 36.9525 0.169533 36.7265 0.5086L30.7937 9.7199L29.0422 0.452088C28.9857 0.169533 28.7596 0 28.5336 0H18.5892C18.1372 0 17.6852 0.339066 17.5722 0.791155L17.1202 2.31695C17.0637 2.59951 17.2332 2.88206 17.5157 2.93857C17.5722 2.93857 17.6287 2.93857 17.6287 2.93857H26.33L28.4206 13.1671C28.4771 13.3931 28.7031 13.5627 28.9292 13.6192H36.8395L37.009 12.941H32.2628L40.1731 0.791155C40.3426 0.565111 40.2861 0.226044 40.0036 0.0565111C40.0036 0 39.8906 0 39.7776 0ZM63 4.18182C62.887 1.80835 60.9094 0 58.5363 0H51.9256C51.4735 0 51.0215 0.339066 50.9085 0.791155L48.7049 8.81573C48.3094 10.2285 47.0099 11.1892 45.5408 11.2457H45.4843C44.7498 11.2457 44.0718 10.9066 43.6762 10.3415C43.2807 9.77641 43.1112 9.09828 43.3372 8.42015L45.4843 0.678133H47.9139L48.0269 0H43.2807C42.8287 0 42.3767 0.339066 42.2637 0.791155L40.3426 7.62899C39.8906 9.2113 40.2296 10.8501 41.2466 12.1499C42.2072 13.3366 43.6197 14.0713 45.0888 14.1843H56.6152L56.8413 13.5061H48.3659C49.948 12.715 51.078 11.3022 51.53 9.60688L53.3946 2.99509H58.3103C59.5534 2.99509 60.0054 3.5602 60.0054 4.29484C60.0054 5.086 59.3839 5.76413 58.5928 5.76413H55.8807C55.4287 5.76413 54.9767 6.10319 54.8637 6.55528L54.4117 8.08108C54.3552 8.36364 54.5247 8.64619 54.8072 8.75921C54.8637 8.75921 54.9202 8.75921 54.9767 8.75921H58.7058C59.8924 8.75921 61.0224 8.25061 61.87 7.40295C62.6045 6.55528 63.0565 5.36855 63 4.18182ZM59.4969 12.0369H55.0332L54.8072 12.715H59.2709L59.4969 12.0369ZM24.296 7.62899C24.296 7.57248 24.748 5.99017 24.748 5.99017C24.8045 5.70762 24.6915 5.42506 24.409 5.31204C24.3525 5.31204 24.296 5.31204 24.2395 5.31204H17.6852C17.1767 5.31204 16.7812 5.65111 16.6682 6.10319L16.2726 7.62899C16.2161 7.91155 16.3857 8.1941 16.6682 8.25061C16.7247 8.25061 16.7812 8.25061 16.7812 8.25061H25.8215L25.991 7.57248H24.296V7.62899Z" fill="white"/>
<path d="M31.4153 16.8403C30.9067 16.2187 30.1722 15.8796 29.3812 15.8796C28.0251 15.8796 26.8386 16.7838 26.4431 18.0835L25.991 19.8354C25.765 20.6265 25.9345 21.4177 26.4431 22.0393C26.9516 22.6609 27.6861 23.0565 28.4771 23C29.8332 23 31.0197 22.0958 31.3588 20.7961L31.8108 19.0442C32.0368 18.3096 31.8673 17.4619 31.4153 16.8403ZM29.9462 20.4005C29.7767 21.0786 29.1552 21.5307 28.4206 21.5307C28.0816 21.5307 27.7426 21.3612 27.5166 21.0786C27.3471 20.7961 27.2341 20.457 27.3471 20.1744L27.7991 18.4791V18.4226C27.9686 17.7445 28.5901 17.2924 29.3247 17.2359H29.3812C29.7202 17.2359 30.0592 17.4054 30.2852 17.688C30.4547 17.9705 30.5677 18.3096 30.4547 18.5921L29.9462 20.4005Z" fill="white"/>
<path d="M23.5615 15.8796C22.2054 15.7666 20.9624 16.5577 20.4538 17.801C20.3973 17.914 20.4538 18.027 20.5668 18.027H20.6233H21.6969C21.8099 18.027 21.9229 17.9705 22.0359 17.8575C22.3184 17.4619 22.8269 17.2359 23.2789 17.2924C23.7875 17.2924 24.183 17.6314 24.183 18.14C24.183 18.2531 24.183 18.3661 24.1265 18.4791C23.7875 19.6093 20.2843 19.5528 19.2673 22.4349C19.2108 22.5479 19.2673 22.6609 19.3803 22.6609H19.4368H24.07C24.2395 22.6609 24.3525 22.5479 24.409 22.3784L24.6915 21.3612C24.6915 21.2482 24.635 21.1351 24.5785 21.1351H24.522H21.5839C22.5444 20.7961 24.974 20.6265 25.5955 18.7052C25.9911 17.5749 25.3695 16.2752 24.183 15.9361C24.07 15.9361 23.7875 15.8796 23.5615 15.8796Z" fill="white"/>
<path d="M35.6529 15.8796C34.2969 15.7666 33.0538 16.5577 32.5453 17.801C32.4888 17.914 32.5453 18.027 32.6583 18.027H32.7148H33.9013C34.0144 18.027 34.1274 17.9705 34.2404 17.8575C34.5229 17.4619 35.0314 17.2359 35.4834 17.2924C35.9919 17.2924 36.3874 17.6314 36.3874 18.14C36.3874 18.2531 36.3874 18.3661 36.3309 18.4791C35.9919 19.6093 32.4888 19.5528 31.4718 22.4349C31.4152 22.5479 31.4718 22.6609 31.5848 22.6609H31.6413H36.2744C36.4439 22.6609 36.557 22.5479 36.6135 22.3784L36.896 21.3612C36.896 21.2482 36.8395 21.1351 36.783 21.1351H36.7265H33.7883C34.7489 20.7961 37.1785 20.6265 37.8 18.7052C38.1955 17.5184 37.574 16.2752 36.3874 15.8796C36.1614 15.9361 35.9354 15.8796 35.6529 15.8796Z" fill="white"/>
<path d="M41.4162 15.8796C40.0601 15.7666 38.8171 16.5577 38.3086 17.801C38.2521 17.914 38.3086 18.027 38.4216 18.027H38.4781H39.5516C39.6646 18.027 39.7776 17.9705 39.8906 17.8575C40.1731 17.4619 40.6817 17.2359 41.1337 17.2924C41.6422 17.2924 42.0377 17.6314 42.0377 18.14C42.0377 18.2531 42.0377 18.3661 41.9812 18.4791C41.6422 19.6093 38.1391 19.5528 37.122 22.4349C37.0655 22.5479 37.122 22.6609 37.235 22.6609H37.2915H41.9247C42.0942 22.6609 42.2072 22.5479 42.2637 22.3784L42.5462 21.3612C42.5462 21.2482 42.4897 21.1351 42.4332 21.1351H42.3767H39.5516C40.5122 20.7961 42.9983 20.6265 43.5633 18.7052C43.9588 17.5184 43.3373 16.2752 42.1507 15.8796C41.9247 15.9361 41.6422 15.8796 41.4162 15.8796Z" fill="white"/>
</g>
<defs>
<clipPath id="clip0_2_284">
<rect width="63" height="23" fill="white"/>
</clipPath>
</defs>
</svg>
